# xmcd
#
# Track frame offsets: 
#        150
#        28179
#        50695
#        73225
#        94624
#        122891
#        137130
#        166161
#
# Disc length: 2542 seconds
#
# Revision: 2
# Processed by: cddbd v1.5.2PL0 Copyright (c) Steve Scherf et al.
# Submitted via: ExactAudioCopy v1.1
#
DISCID=7209ec08
DTITLE=林海、范宗沛 - 含笑
DYEAR=1995
DGENRE=Musical
TTITLE0=含笑
TTITLE1=顏色
TTITLE2=尋味
TTITLE3=好雪
TTITLE4=水踏
TTITLE5=新涼
TTITLE6=紅釀
TTITLE7=出岫
EXTD=YEAR: 1995
EXTT0=
EXTT1=
EXTT2=
EXTT3=
EXTT4=
EXTT5=
EXTT6=
EXTT7=
PLAYORDER=
